<svg width="148" height="36" viewBox="0 0 148 36" fill="none" xmlns="http://www.w3.org/2000/svg">
<path d="M66.3452 16.301H58.5299V9.0551H55.1074V26.9388H58.5299V19.4082H66.3452V26.9388H69.7676V9.0551H66.3452V16.301Z" fill="black"/>
<path d="M84.5379 9.05512H73.1562V19.6102C73.1562 22.2735 73.7471 24.2021 74.9256 25.4021C76.1042 26.599 77.9777 27.199 80.546 27.199C83.1144 27.199 84.9205 26.5776 86.1358 25.3317C87.3542 24.0857 87.9603 22.1786 87.9603 19.6133V9.05512H84.5379ZM83.6807 23.0327C83.1113 23.6602 82.0644 23.9755 80.543 23.9755C79.0216 23.9755 78.0052 23.6663 77.4328 23.048C76.8634 22.4296 76.5756 21.2847 76.5756 19.6102V11.9174H84.5348V19.6102C84.5348 21.2633 84.2501 22.4051 83.6777 23.0327H83.6807Z" fill="black"/>
<path d="M99.8929 19.2368L95.3562 9.05512H91.1348V26.9388H94.3582V14.501L98.4082 23.4306H101.234L105.311 14.5317V26.9388H108.535V9.05512H104.457L99.8929 19.2368Z" fill="black"/>
<path d="M117.18 9.05512L110.332 26.9419H113.926L115.181 23.2898H122.571L123.853 26.9419H127.447L120.716 9.05512H117.18ZM116.182 20.4643L117.437 16.8429C117.667 16.1572 117.909 15.4163 118.166 14.6174C118.423 13.8184 118.655 13.0592 118.864 12.3368C119.093 13.1174 119.338 13.9102 119.604 14.7184C119.871 15.5266 120.11 16.2337 120.318 16.8429L121.573 20.4643H116.182Z" fill="black"/>
<path d="M142.133 21.4623L133.632 9.05512H130.295V26.9388H133.518V14.8163L141.992 26.9388H145.329V9.05512H142.133V21.4623Z" fill="black"/>
<path d="M37.7071 13.7541C35.8612 7.59183 30.149 3.10101 23.3867 3.10101C17.1357 3.10101 11.7816 6.93979 9.55 12.3888V12.3796C4.34286 13.5551 1 15.3765 1 17.4184C1 19.4602 4.13775 21.1653 9.06633 22.3439C10.9122 28.5061 16.6245 32.9969 23.3867 32.9969C29.6378 32.9969 34.9918 29.1582 37.2235 23.7092V23.7184C42.4306 22.5429 45.7735 20.7214 45.7735 18.6796C45.7735 16.6377 42.6357 14.9326 37.7071 13.7541ZM35.5306 21.2571C34.1133 26.6388 29.2153 30.6061 23.3898 30.6061C18.1765 30.6061 13.7071 27.4286 11.8061 22.9041C11.1816 21.4133 10.8327 19.7755 10.8327 18.0582V18.049C10.8327 11.1153 16.4531 5.49183 23.3898 5.49183C28.6031 5.49183 33.0724 8.66938 34.9735 13.1939C33.5622 12.949 32.0469 12.7439 30.4551 12.5908C28.0888 12.349 25.5449 12.2143 22.8908 12.2143C20.4173 12.2143 18.0388 12.3306 15.8133 12.5418V13.7602H15.801V17.651H15.8071C15.9204 21.7439 19.2694 25.0255 23.3867 25.0255C27.5041 25.0255 30.8561 21.7439 30.9663 17.651H30.9724V14.801H31.2204C31.8051 14.8194 33.299 14.9633 34.3643 15.9214C34.4806 16.0377 34.5908 16.1571 34.698 16.2796C35.2337 16.9439 36.1918 18.5786 35.5337 21.2571H35.5306ZM28.4071 14.8041V17.6265C28.3092 20.3204 26.102 22.4724 23.3837 22.4724C20.6653 22.4724 18.4582 20.3173 18.3602 17.6265V14.8041H28.4041H28.4071Z" fill="url(#paint0_linear_2139_733)"/>
<defs>
<linearGradient id="paint0_linear_2139_733" x1="13.3092" y1="7.53367" x2="33.5255" y2="28.6316" gradientUnits="userSpaceOnUse">
<stop stop-color="#FF843D"/>
<stop offset="1" stop-color="#FF9D42"/>
</linearGradient>
</defs>
</svg>
