<svg width="56" height="56" viewBox="0 0 56 56" fill="none" xmlns="http://www.w3.org/2000/svg">
<path d="M45.68 22.0939C43.3829 14.4254 36.2743 8.83679 27.859 8.83679C20.08 8.83679 13.4171 13.6139 10.64 20.3949V20.3835C4.16 21.8463 0 24.113 0 26.6539C0 29.1949 3.90476 31.3168 10.0381 32.7835C12.3352 40.452 19.4438 46.0406 27.859 46.0406C35.6381 46.0406 42.3009 41.2635 45.0781 34.4825V34.4939C51.5581 33.0311 55.7181 30.7644 55.7181 28.2235C55.7181 25.6825 51.8133 23.5606 45.68 22.0939ZM42.9714 31.4311C41.2076 38.1282 35.1124 43.0654 27.8629 43.0654C21.3752 43.0654 15.8133 39.1111 13.4476 33.4806C12.6705 31.6254 12.2362 29.5873 12.2362 27.4501V27.4387C12.2362 18.8101 19.2305 11.812 27.8629 11.812C34.3505 11.812 39.9124 15.7663 42.2781 21.3968C40.5219 21.092 38.6362 20.8368 36.6552 20.6463C33.7105 20.3454 30.5448 20.1777 27.2419 20.1777C24.1638 20.1777 21.2038 20.3225 18.4343 20.5854V22.1016H18.419V26.9435H18.4267C18.5676 32.0368 22.7352 36.1206 27.859 36.1206C32.9829 36.1206 37.1543 32.0368 37.2914 26.9435H37.299V23.3968H37.6076C38.3352 23.4197 40.1943 23.5987 41.52 24.7911C41.6648 24.9358 41.8019 25.0844 41.9352 25.2368C42.6019 26.0635 43.7943 28.0977 42.9752 31.4311H42.9714ZM34.1067 23.4006V26.913C33.9848 30.2654 31.2381 32.9435 27.8552 32.9435C24.4724 32.9435 21.7257 30.2616 21.6038 26.913V23.4006H34.1029H34.1067Z" fill="url(#paint0_linear_2139_847)"/>
<defs>
<linearGradient id="paint0_linear_2139_847" x1="15.3181" y1="14.353" x2="40.4762" y2="40.6082" gradientUnits="userSpaceOnUse">
<stop stop-color="#FF843D"/>
<stop offset="1" stop-color="#FF9D42"/>
</linearGradient>
</defs>
</svg>
